<?xml version="1.0" encoding="UTF-8"?>
<svg version="1.1" xmlns="http://www.w3.org/2000/svg" width="496" height="496">
<path d="M0 0 C163.68 0 327.36 0 496 0 C496 163.68 496 327.36 496 496 C332.32 496 168.64 496 0 496 C0 332.32 0 168.64 0 0 Z " fill="#FEFEFF" transform="translate(0,0)"/>
<path d="M0 0 C2.57878209 1.04554783 4.89551767 2.31224485 7.29931641 3.71728516 C8.83869873 4.61169312 8.83869873 4.61169312 10.40917969 5.52416992 C12.06796143 6.49761353 12.06796143 6.49761353 13.76025391 7.49072266 C14.92515618 8.169541 16.09036332 8.84783642 17.25585938 9.52563477 C19.67906 10.93535372 22.10092896 12.34732249 24.52197266 13.76074219 C29.01774126 16.38292299 33.52857622 18.97879443 38.03955078 21.57470703 C47.79420395 27.18851289 57.53384536 32.82812871 67.26025391 38.49072266 C68.23752441 39.05863525 69.21479492 39.62654785 70.22167969 40.21166992 C74.37408954 42.63300268 78.48815298 45.07741836 82.52587891 47.68603516 C87.09173164 50.54881671 90.71704703 51.58461882 96.13525391 50.86572266 C101.12010937 49.0826782 105.59050127 46.54148261 110.13525391 43.86572266 C110.83312012 43.45660645 111.53098633 43.04749023 112.25 42.62597656 C116.29747387 40.23863783 120.31971997 37.81151518 124.33447266 35.36962891 C132.24764851 30.56792434 140.24779224 25.91356989 148.2434082 21.25097656 C154.06795163 17.85181484 159.8750644 14.43210136 165.63525391 10.92431641 C166.63250488 10.32095459 167.62975586 9.71759277 168.65722656 9.09594727 C170.50136636 7.97756469 172.34002239 6.85006668 174.171875 5.71166992 C178.87630121 2.86989352 182.57231666 0.92322072 188.13525391 0.86572266 C190.69492278 3.42539153 190.38813025 4.36446803 190.39595032 7.91850281 C190.40303513 8.98814774 190.41011993 10.05779266 190.41741943 11.15985107 C190.41494202 12.33855774 190.4124646 13.5172644 190.40991211 14.73168945 C190.41502304 15.96919449 190.42013397 17.20669952 190.42539978 18.48170471 C190.43694515 21.88285442 190.43936464 25.28376095 190.43683648 28.6849134 C190.43576799 31.52509324 190.44064744 34.36525054 190.4454419 37.20542556 C190.45654964 43.91016081 190.45696862 50.61484007 190.45092773 57.31958008 C190.44489766 64.22916707 190.45717129 71.13854993 190.4784978 78.04810208 C190.49613993 83.9828231 190.50211071 89.91747933 190.49886006 95.8522256 C190.49704984 99.39542833 190.49965633 102.93848573 190.5135746 106.48166466 C190.52853549 110.4387848 190.51915992 114.39564757 190.50756836 118.3527832 C190.5152121 119.52136871 190.52285583 120.68995422 190.5307312 121.89395142 C190.48649395 128.72881311 190.18921463 134.25370495 185.60546875 139.67504883 C181.17792734 143.18652438 176.58716512 146.24326138 171.76025391 149.17822266 C164.1606655 153.90357821 156.64285815 158.74483042 149.21063232 163.72885132 C148.08034682 164.48455909 146.94725001 165.2360795 145.81134033 165.98330688 C144.21135997 167.03708219 142.622274 168.10734222 141.03369141 169.17822266 C140.11249512 169.79310547 139.19129883 170.40798828 138.2421875 171.04150391 C135.98315237 172.99741474 135.45528008 173.94437545 135.13525391 176.86572266 C152.22696557 190.66417818 152.22696557 190.66417818 172.25634766 195.85791016 C178.75899528 193.61683486 184.55227815 190.10209328 190.40136719 186.53125 C193.43150451 184.68524207 196.48290424 182.87782062 199.53759766 181.07275391 C203.83914178 178.52093185 208.13676234 175.96311748 212.42041016 173.38134766 C213.30607666 172.84799805 214.19174316 172.31464844 215.10424805 171.76513672 C216.10447998 171.13833008 217.10471191 170.51152344 218.13525391 169.86572266 C218.90265396 169.48134033 219.67005402 169.09695801 220.46070862 168.70092773 C225.29018713 166.08340855 225.29018713 166.08340855 227.92875671 161.48223877 C228.20809482 158.54182017 228.19950828 155.72366985 228.09228516 152.77197266 C228.09225998 151.70708618 228.0922348 150.64219971 228.09220886 149.54504395 C228.08631592 146.15008843 228.02070179 142.75984573 227.94775391 139.36572266 C227.90129985 135.97241065 227.86787695 132.58001692 227.8568573 129.18640137 C227.84733704 127.0781864 227.81613852 124.96992765 227.76045227 122.86242676 C227.70363898 117.00976863 227.98428735 113.3618928 232.13525391 108.86572266 C235.08032227 106.62402344 235.08032227 106.62402344 238.47509766 104.56103516 C239.07906876 104.19219208 239.68303986 103.823349 240.30531311 103.44332886 C241.57478484 102.67249583 242.84818135 101.90809273 244.12524414 101.14990234 C246.07431563 99.9897931 248.00634653 98.80457618 249.93798828 97.61572266 C251.1785934 96.86678191 252.42010076 96.11933323 253.66259766 95.37353516 C254.78400146 94.6995166 255.90540527 94.02549805 257.06079102 93.33105469 C260.13489606 91.86589321 261.79541495 91.34794663 265.13525391 91.86572266 C268.11877893 94.84924768 267.43837682 98.13431985 267.44165039 102.13574219 C267.44997391 102.99125168 267.45829742 103.84676117 267.46687317 104.72819519 C267.49104852 107.56835434 267.49975658 110.40828388 267.50634766 113.24853516 C267.51531178 115.22191437 267.52443358 117.19529287 267.53370667 119.16867065 C267.55022212 123.3131475 267.5579008 127.45754336 267.56079102 131.60205078 C267.56616225 136.9016344 267.6037792 142.20045119 267.64953518 147.4998188 C267.67935338 151.58003478 267.68651569 155.66006771 267.68751717 159.74038315 C267.69171385 161.6931495 267.70412593 163.64591667 267.72503471 165.59857559 C267.75203369 168.33939173 267.74709748 171.07845262 267.73461914 173.81933594 C267.75687057 175.01980309 267.75687057 175.01980309 267.77957153 176.24452209 C267.70279869 182.19665448 265.90968071 186.25838989 262.13525391 190.86572266 C259.31494141 193.05322266 259.31494141 193.05322266 256.01025391 194.86572266 C254.66196632 195.62762734 253.31436672 196.3907502 251.96728516 197.15478516 C251.20754395 197.57791992 250.44780273 198.00105469 249.66503906 198.43701172 C244.62473156 201.28355481 239.67102098 204.27917918 234.69775391 207.24072266 C232.36476671 208.62282251 230.03144799 210.00434931 227.69775391 211.38525391 C222.36163153 214.54462818 217.02884262 217.70958156 211.69775391 220.87744141 C210.9890062 221.29854187 210.28025848 221.71964233 209.55003357 222.15350342 C206.75801948 223.81242846 203.96601993 225.47137699 201.17459106 227.13128662 C197.41711173 229.36562031 193.65808917 231.5972989 189.89581299 233.82354736 C188.71903671 234.52014834 187.54272839 235.21754043 186.36688232 235.91571045 C184.70675597 236.90064816 183.04410687 237.88133 181.38134766 238.86181641 C180.43831787 239.41925537 179.49528809 239.97669434 178.52368164 240.55102539 C174.26646987 242.89438483 170.95265592 243.19742936 166.13525391 242.86572266 C163.19775391 241.64306641 163.19775391 241.64306641 160.13525391 239.80322266 C159.55404785 239.45743164 158.9728418 239.11164063 158.37402344 238.75537109 C151.47247884 234.58528535 144.76588051 230.09112705 138.03442383 225.65429688 C130.78729768 220.89154453 123.42461069 216.37520665 115.96362305 211.95727539 C99.37899684 202.10946559 99.37899684 202.10946559 96.13525391 198.86572266 C95.99027601 197.40051525 95.91261216 195.9285589 95.86303711 194.45703125 C95.83083572 193.51870453 95.79863434 192.58037781 95.76545715 191.61361694 C95.65488056 187.29834688 95.572354 182.98323221 95.51049805 178.66699219 C95.46885708 176.39310362 95.4075081 174.11948585 95.32592773 171.84667969 C94.66088435 153.01978144 94.66088435 153.01978144 98.13549805 147.94335938 C100.74649874 146.09122833 103.13868385 144.96801582 106.13525391 143.86572266 C107.47033271 143.08798553 108.79119897 142.28501794 110.09228516 141.45166016 C111.37545065 140.71122029 112.6606637 139.97431905 113.94775391 139.24072266 C120.8216886 135.25535336 127.62228976 131.16167752 134.38525391 126.99072266 C135.27833252 126.44335449 136.17141113 125.89598633 137.09155273 125.33203125 C138.35841919 124.54820068 138.35841919 124.54820068 139.65087891 123.74853516 C140.3962793 123.28850098 141.14167969 122.8284668 141.90966797 122.35449219 C142.64411133 121.86319824 143.37855469 121.3719043 144.13525391 120.86572266 C145.03816162 120.37088379 145.94106934 119.87604492 146.87133789 119.36621094 C150.48256756 115.37761887 149.8621549 111.17562681 149.84228516 105.97509766 C149.86496712 104.38547211 149.86496712 104.38547211 149.8881073 102.76373291 C149.93107521 99.38084791 149.93983145 95.99885366 149.94775391 92.61572266 C149.97089101 90.32142799 149.99625469 88.02715462 150.02392578 85.73291016 C150.08686779 80.11050597 150.12172992 74.48845113 150.13525391 68.86572266 C145.69275927 70.70346017 141.52576508 72.66751982 137.36181641 75.08837891 C136.29713135 75.70503418 135.23244629 76.32168945 134.13549805 76.95703125 C133.02166748 77.60752441 131.90783691 78.25801758 130.76025391 78.92822266 C129.60085959 79.60124279 128.44127145 80.27392913 127.28149414 80.94628906 C122.09411902 83.95712889 116.91865166 86.98787151 111.75634766 90.04150391 C110.97501465 90.50355225 110.19368164 90.96560059 109.38867188 91.44165039 C107.96524065 92.28565279 106.54358263 93.13265551 105.12402344 93.9831543 C99.02681763 97.60951979 94.18462081 98.94404498 87.13525391 97.86572266 C82.86813222 96.10516711 79.04631516 93.7415704 75.13525391 91.30322266 C73.09438476 90.07143158 71.05266668 88.84104632 69.01025391 87.61181641 C68.46643066 87.28023529 67.92260742 86.94865417 67.36230469 86.60702515 C60.72643302 82.57347149 53.98968657 78.7128442 47.26025391 74.83837891 C46.66210876 74.49396696 46.06396362 74.14955502 45.44769287 73.79470634 C42.0112613 71.81655269 38.5737088 69.84035699 35.13525391 67.86572266 C35.13969513 69.01386444 35.14413635 70.16200623 35.14871216 71.34494019 C35.18919181 82.14595562 35.21920629 92.94695573 35.23887825 103.74802971 C35.24933164 109.30145292 35.26351914 114.85481506 35.28613281 120.40820312 C35.30780582 125.76388273 35.3198108 131.11950348 35.32500839 136.47522354 C35.32871414 138.52223767 35.33595015 140.56924845 35.34671402 142.61623764 C35.36115532 145.47534998 35.36323495 148.33421665 35.36230469 151.19335938 C35.36949524 152.04643677 35.37668579 152.89951416 35.38409424 153.77844238 C35.36335823 159.63761833 35.36335823 159.63761833 33.13525391 161.86572266 C25.83094137 161.98481471 20.20145462 157.77917394 14.13525391 154.11572266 C13.08080078 153.49439453 12.02634766 152.87306641 10.93994141 152.23291016 C7.98122785 150.4754788 5.03865428 148.71325178 2.13525391 146.86572266 C1.54668421 146.59965399 0.95811451 146.33358532 0.35170937 146.05945396 C-1.87955735 144.87554134 -3.26399673 143.83556655 -4.86474609 141.86572266 C-5.92821869 137.45601471 -5.77937103 133.10257926 -5.70703125 128.5859375 C-5.7099696 127.22061724 -5.71594764 125.85530065 -5.72473145 124.49000549 C-5.73953841 120.78923687 -5.71075924 117.08996536 -5.67329836 113.38940382 C-5.64066038 109.51643418 -5.64539037 105.64349809 -5.64535522 101.77041626 C-5.63979303 95.26872515 -5.60748672 88.76760798 -5.55761719 82.26611328 C-5.50011115 74.74684649 -5.47730264 67.22812678 -5.474733 59.70865285 C-5.47181029 51.70403329 -5.44600324 43.69961539 -5.41216612 35.69507265 C-5.40380252 33.38748563 -5.39945896 31.07991877 -5.3958931 28.77231979 C-5.38899356 25.14914871 -5.36659684 21.52638981 -5.3321228 17.90337944 C-5.31679935 15.93715924 -5.31608998 13.97084227 -5.31576538 12.00456238 C-5.30152527 10.83809677 -5.28728516 9.67163116 -5.27261353 8.46981812 C-5.26628717 7.45404379 -5.25996082 6.43826946 -5.25344276 5.3917141 C-4.86474609 2.86572266 -4.86474609 2.86572266 -3.45580101 1.00707436 C-1.86474609 -0.13427734 -1.86474609 -0.13427734 0 0 Z " fill="#0380FF" transform="translate(116.86474609375,142.13427734375)"/>
<path d="M0 0 C2.64485493 2.64485493 1.27419905 10.08816162 1.29516602 13.88061523 C1.31224025 16.02980408 1.35608345 18.17739764 1.40039062 20.32617188 C1.4882369 27.85643388 1.43127993 33.71165898 -3 40 C-8.26357022 44.52074797 -14.15660001 48.09936099 -20 51.8125 C-21.08023437 52.51826172 -22.16046875 53.22402344 -23.2734375 53.95117188 C-24.31757813 54.61310547 -25.36171875 55.27503906 -26.4375 55.95703125 C-27.38496094 56.56522705 -28.33242188 57.17342285 -29.30859375 57.80004883 C-32.43075267 59.19204911 -33.8059233 59.085465 -37 58 C-39.7258502 55.2741498 -38.41268934 46.23749379 -38.45996094 42.41040039 C-38.48645558 40.77403311 -38.52725695 39.13782915 -38.58300781 37.50219727 C-39.09851969 22.19677394 -39.09851969 22.19677394 -35.2890625 17.3828125 C-30.61185359 13.19809733 -25.09068579 9.99865669 -19.63818359 6.93286133 C-17.85852809 5.92820119 -16.09943794 4.89283235 -14.33984375 3.85351562 C-4.77345159 -1.62003865 -4.77345159 -1.62003865 0 0 Z " fill="#0481FF" transform="translate(383,147)"/>
</svg>
